inDegrees=no
num_controls=7
num_derivatives=13
num_iterations=132
num_multipliers=7
num_parameters=0
num_slacks=7
num_states=26
objective=0.433369
objective_accelerations=0.049672
objective_balance=0.007281
objective_effort=0.029271
objective_height=0.346037
objective_ligament=0.001108
solver_duration=1677.850166
status=Solve_Succeeded
success=true
DataType=double
version=3
OpenSimVersion=4.5
endheader
time	/jointset/ground_pelvis/pelvis_tilt/value	/jointset/ground_pelvis/pelvis_tx/value	/jointset/ground_pelvis/pelvis_ty/value	/jointset/hip_l/hip_flexion_l/value	/jointset/hip_l/hip_adduction_l/value	/jointset/hip_l/hip_rotation_l/value	/jointset/back/lumbar_extension/value	/jointset/patellofemoral_l/patellar_flexion_l/value	/jointset/knee_l/knee_flexion_l/value	/jointset/knee_l/knee_adduction_l/value	/jointset/knee_l/knee_rotation_l/value	/jointset/ankle_l/ankle_angle_l/value	/jointset/subtalar_l/subtalar_angle_l/value	/jointset/ground_pelvis/pelvis_tilt/speed	/jointset/ground_pelvis/pelvis_tx/speed	/jointset/ground_pelvis/pelvis_ty/speed	/jointset/hip_l/hip_flexion_l/speed	/jointset/hip_l/hip_adduction_l/speed	/jointset/hip_l/hip_rotation_l/speed	/jointset/back/lumbar_extension/speed	/jointset/patellofemoral_l/patellar_flexion_l/speed	/jointset/knee_l/knee_flexion_l/speed	/jointset/knee_l/knee_adduction_l/speed	/jointset/knee_l/knee_rotation_l/speed	/jointset/ankle_l/ankle_angle_l/speed	/jointset/subtalar_l/subtalar_angle_l/speed	/forceset/tau_hip_flexion_l	/forceset/tau_hip_adduction_l	/forceset/tau_hip_rotation_l	/forceset/tau_knee_flexion_l	/forceset/tau_ankle_angle_l	/forceset/tau_subtalar_angle_l	/forceset/tau_lumbar_extension	lambda_cid13_p0	lambda_cid13_p1	lambda_cid13_p2	lambda_cid13_p3	lambda_cid13_p4	lambda_cid13_p5	lambda_cid14_p0	/jointset/ground_pelvis/pelvis_tilt/accel	/jointset/ground_pelvis/pelvis_tx/accel	/jointset/ground_pelvis/pelvis_ty/accel	/jointset/hip_l/hip_flexion_l/accel	/jointset/hip_l/hip_adduction_l/accel	/jointset/hip_l/hip_rotation_l/accel	/jointset/back/lumbar_extension/accel	/jointset/patellofemoral_l/patellar_flexion_l/accel	/jointset/knee_l/knee_flexion_l/accel	/jointset/knee_l/knee_adduction_l/accel	/jointset/knee_l/knee_rotation_l/accel	/jointset/ankle_l/ankle_angle_l/accel	/jointset/subtalar_l/subtalar_angle_l/accel	gamma_cid13_p0	gamma_cid13_p1	gamma_cid13_p2	gamma_cid13_p3	gamma_cid13_p4	gamma_cid13_p5	gamma_cid14_p0
0.5	-0.2820965439974338	0.004054852733785834	0.7753752060715295	1.077854460915247	-0.3038645147111556	0.01590232476341301	-0.3126840926107713	0.8421023479715751	0.8421023479714028	-0.1706277963549359	0.1718408490418639	0.2322530037744903	-0.003428671899118261	-0.2991964131618116	-0.09571944807948626	-0.4885735019067005	1.905007277207784	0.02131150917791814	0.748365835062509	-0.6399572806536451	2.188842349252509	2.188842349252777	-0.01305347076618429	0.02102044652287454	0.7213784241141415	0.1585622441255877	-0.1586824218896554	0.02802195092537089	-0.02715036075674093	-0.2655336066439444	0.05397284987642998	0.0368608934012728	0.1676022769115477	-20.29670521757031	-15.49575937597683	5.541444531193213	2.36736001499625	-603.0239100186241	-57.38165675647545	-19.03293390033475	0.3438457633643736	0.40978547061479	-0.4611837354850031	-1.168623981176537	0.6840571790120976	-0.4536327522584856	1.491919747286931	-1.447448083270702	-1.447448083270686	-0.01256749181908963	-0.07403035821449909	-0.6855127476101427	0.8053671719535576	-4.369260791978034e-07	-5.572030158545117e-07	2.718231445476703e-06	2.747791630040888e-07	-5.138512968717549e-07	-7.032937119397662e-07	-4.158599056263337e-07
0.51	-0.2850707037289923	0.003118295785867097	0.7704675156616072	1.096842804966537	-0.303618665715551	0.02336443751926816	-0.3190084326255775	0.8639146882825096	0.8639146882825571	-0.1707623480074525	0.1720470363495589	0.2394309644869395	-0.001804530086463484	-0.2956023480631451	-0.09158185620493969	-0.4928534287951315	1.89239336138414	0.02782090459062378	0.7439620031710875	-0.6248201297376181	2.173314918244472	2.173314918244415	-0.01384556460941499	0.02021825337980538	0.7141051494911905	0.1662346307556603	-0.1642229997325204	0.02860320578864966	-0.02710740668475555	-0.2687197702161801	0.05093205208054576	0.03696095422446243	0.1724506709186164	-21.48892727923279	-15.21181394967825	5.360645034970458	2.797279937126228	-607.3668446918309	-57.11161909555658	-17.67453592782732	0.3721323485564239	0.4173131433355825	-0.3948228716693595	-1.348045738007833	0.6284017320118622	-0.4483188685820653	1.538201649266094	-1.651929891099831	-1.651929891148551	-0.1108227840757318	-0.08363338555849675	-0.764511300593367	0.7432187248637114	-3.980610937730656e-07	-4.004496361797611e-07	2.570617766180451e-06	2.726177000731556e-07	-4.757747514306093e-07	-5.485755328027686e-07	-3.843703855886833e-07
0.52	-0.2880079337164765	0.00222342817618601	0.7655203408415712	1.115696955788581	-0.303308918563897	0.03077959986400977	-0.3251786833541223	0.8855624464270579	0.8855624464273218	-0.1709044790891013	0.1722451378071822	0.2465329371569681	-0.0001046555442420632	-0.291810464346933	-0.08738158043195624	-0.496470383929443	1.878168631358514	0.03409114038781203	0.7389757528397429	-0.6091394234013701	2.155925915975252	2.155925915974871	-0.01456935659267269	0.0194032765085213	0.706180815630008	0.1737087900389174	-0.1697635775753848	0.02918446065192886	-0.0270644526127689	-0.2719059337884152	0.04789125428466191	0.03706101504765271	0.1772990649256851	-22.68559012651426	-14.92819992153599	5.18116756399742	3.210559621803071	-611.7983114212522	-56.92120765251396	-16.31904368106717	0.3834094868735042	0.4223222503021626	-0.3285893846610858	-1.490786821573005	0.6362252559086216	-0.5701164402430974	1.60063083133116	-1.819762335507069	-1.819762335507073	0.00109288017551342	-0.07658710385748617	-0.8157245952564496	0.7657217025904677	-3.616357081507121e-07	-2.291139871253075e-07	2.435600451368545e-06	2.748498709076228e-07	-4.430078958861641e-07	-3.901667420814395e-07	-3.535806659386568e-07
0.53	-0.2909063675528852	0.001370821038052315	0.7605403361459777	1.134401120436521	-0.302937515457529	0.03814211969921631	-0.3311895655400696	0.9070272926668699	0.9070272926669434	-0.1710531982411994	0.1724348612766865	0.2535525999763775	0.00166914353962815	-0.2878489666226227	-0.08313427908996464	-0.4994166815553583	1.862412847562368	0.04014656458991465	0.7334390594149949	-0.5929660210643063	2.136751391489057	2.136751391488893	-0.01516332327427111	0.01854352848571625	0.6976536996664201	0.1810114001902092	-0.1750454621494353	0.02959518163228242	-0.0269744873822516	-0.2753424398200257	0.04520164093435283	0.03699522824341937	0.1819248721198269	-23.77364452312014	-14.57944900420097	4.977452450415495	3.585164312736669	-616.1964068588647	-56.66204187816889	-14.97208560610053	0.4065966490455135	0.4268244963211467	-0.260654065879794	-1.655726559581953	0.5834088371313098	-0.5591079335858726	1.636343843472301	-2.010021098221625	-2.010021098188948	-0.08792888793405801	-0.09081094864146473	-0.8858934007354591	0.7063308701185935	-3.237718532629949e-07	-8.624144510759297e-08	2.281595617840681e-06	2.709529202354933e-07	-4.079706404280791e-07	-2.48102239300168e-07	-3.22283471724949e-07
0.54	-0.2937643710652835	0.0005608649973732236	0.7555342676512604	1.152940176766309	-0.3025069165421861	0.04544654017217654	-0.3370365839209306	0.9282916489432107	0.9282916489430961	-0.1712075145492347	0.1726159588065328	0.260484053975386	0.003514728764755289	-0.283724399544883	-0.07885136094103565	-0.501683143754191	1.845146967728361	0.04593030218282642	0.7273558803904387	-0.5763666623841093	2.115827923281028	2.115827923281083	-0.01568878778013116	0.01767808857693313	0.6885390515498125	0.1880660182903034	-0.1803273467234856	0.03000590261263621	-0.02688452215173434	-0.2787789458516358	0.04251202758404402	0.03692944143918641	0.1865506793139687	-24.8657697397204	-14.22986592691882	4.773470672362077	3.942278676371707	-620.6734928557371	-56.47092423841099	-13.63737576070477	0.4160233575593997	0.4294456116896367	-0.1926222992445858	-1.792806029145285	0.5818879340704497	-0.6794135602046644	1.68582209995781	-2.16955107987361	-2.169551079873647	0.01479331532319186	-0.07772548105310292	-0.9332310258603608	0.7161232923509527	-2.843165004646626e-07	2.513999976309079e-08	2.10658331679729e-06	2.602748138539378e-07	-3.704214531506479e-07	-1.241207784951303e-07	-2.904248162918489e-07
0.55	-0.2965803843668841	-0.0002061684951294345	0.750508940841318	1.171299330142587	-0.3020197016337616	0.05268734786776204	-0.3427156582611557	0.9493383152048053	0.9493383152047477	-0.1713663624712992	0.1727883383329631	0.2673215555579599	0.005429761470293852	-0.2794533067244804	-0.07455731444367245	-0.503267275032477	1.826449520548244	0.05146356081471409	0.7207222569387206	-0.5593988500662591	2.093230809122411	2.093230809122526	-0.01607343799932532	0.01680215218098303	0.6788678659355407	0.1948892162824164	-0.18545044913918	0.03030908502485519	-0.02672232947666654	-0.2821977649277159	0.03975273557832771	0.03678222840159112	0.1909988633094841	-25.97963326157791	-13.83198028404358	4.551353877006613	4.389890326353186	-625.0482924663939	-56.23178354888458	-12.31793655095348	0.4363796746306267	0.4291385261984583	-0.1241370498679786	-1.943367185603252	0.5313624690217658	-0.6680734149988786	1.709664136909946	-2.34591496169627	-2.345914961687119	-0.06394052206763409	-0.09227396076150295	-0.9980471443408945	0.6574716625060554	-2.462520774634655e-07	1.279013180166373e-07	1.934954370390001e-06	2.485164647464864e-07	-3.336580993543253e-07	-1.055350652639761e-08	-2.596485741684189e-07
0.5600000000000001	-0.2993529412542106	-0.0009303106511707091	0.7454712070170434	1.189464478422432	-0.3014786906107634	0.05985927199336184	-0.3482235738103602	0.9701507856492456	0.9701507856492454	-0.1715288261618609	0.1729520092470549	0.2740595483213649	0.007411436877726461	-0.2750331166900798	-0.07027309364875894	-0.5041645466206555	1.80634594844179	0.0566895250975555	0.7135791663932632	-0.5421349041799556	2.068988759850177	2.068988759850352	-0.01641194147959614	0.01593636610921131	0.6686372877160567	0.2013945586691133	-0.1905735515548745	0.03061226743707435	-0.02656013680159836	-0.2856165840037958	0.03699344357261157	0.03663501536399615	0.1954470473049993	-27.09787032001751	-13.43225747366433	4.327722545810476	4.823520333458828	-629.5001971549509	-56.05042430275198	-11.01637604673063	0.4458428003590004	0.4274804711996925	-0.05525036122303417	-2.074031014412892	0.5204290642611994	-0.7813069789525003	1.74504881364847	-2.498538102596867	-2.498538102596883	0.02402266310786324	-0.07569541621743163	-1.045109546902802	0.6525521712677628	-2.098567702188306e-07	2.203184843296194e-07	1.767385449546035e-06	2.354618243679597e-07	-2.978377457353329e-07	9.051673883876966e-08	-2.301712280165929e-07
0.5700000000000001	-0.3020806614407229	-0.001611693861120294	0.7404279360444218	1.207421840202665	-0.3008867433593935	0.06695714613067111	-0.353557431210025	0.9907129045462986	0.990712904546183	-0.1716939351169884	0.1731069349176787	0.2806926638136587	0.009456833600853601	-0.2704915679236254	-0.06600810221763398	-0.5043739532111634	1.78490647453075	0.06165346095177018	0.7059173834650669	-0.5245985627044281	2.043178840693803	2.043178840693926	-0.01659274143252975	0.01504428670925067	0.6579072289207272	0.2076348272046665	-0.1954582447057547	0.03066251919652853	-0.02634500098760233	-0.2891843273954348	0.0344935622810835	0.0364844079911326	0.1996861543435114	-28.12786071387343	-13.04706414733932	4.10703647523662	5.208360602442454	-633.8525712204192	-55.95320843479044	-9.734831639016507	0.4612050421107713	0.4253710130616064	0.01351288076241023	-2.211912039720325	0.477133109212482	-0.7705246202616737	1.763628771803238	-2.66060295271133	-2.66060295271927	-0.0365063955683405	-0.09697289172919105	-1.098711273825967	0.6020297441633806	-2.000527493959748e-07	1.409885046028997e-07	1.707214472673768e-06	2.231401453506518e-07	-2.934715618332897e-07	7.008082892816339e-08	-2.263454763366896e-07
